<mxfile host="Electron" modified="2024-02-14T00:48:56.676Z" agent="Mozilla/5.0 (Macintosh; Intel Mac OS X 10_15_7) AppleWebKit/537.36 (KHTML, like Gecko) draw.io/22.0.3 Chrome/114.0.5735.289 Electron/25.8.4 Safari/537.36" etag="S2rfbhXbneL_VYJcOQKr" version="22.0.3" type="device">
  <diagram name="Page-1" id="IML1FyXvYwl8seNSsTun">
    <mxGraphModel dx="1853" dy="743" grid="1" gridSize="10" guides="1" tooltips="1" connect="1" arrows="1" fold="1" page="1" pageScale="1" pageWidth="827" pageHeight="1169" math="0" shadow="0">
      <root>
        <mxCell id="0" />
        <mxCell id="1" parent="0" />
        <mxCell id="k8tZ9NRPcp9l-DTsyhbM-6" value="Server Cluster" style="rounded=1;whiteSpace=wrap;html=1;sketch=1;hachureGap=4;jiggle=2;curveFitting=1;fontFamily=Architects Daughter;fontSource=https%3A%2F%2Ffonts.googleapis.com%2Fcss%3Ffamily%3DArchitects%2BDaughter;fontSize=20;labelPosition=center;verticalLabelPosition=top;align=center;verticalAlign=bottom;fillColor=none;glass=0;" vertex="1" parent="1">
          <mxGeometry x="110" y="170" width="500" height="340" as="geometry" />
        </mxCell>
        <mxCell id="k8tZ9NRPcp9l-DTsyhbM-9" style="rounded=0;sketch=1;hachureGap=4;jiggle=2;curveFitting=1;orthogonalLoop=1;jettySize=auto;html=1;fontFamily=Architects Daughter;fontSource=https%3A%2F%2Ffonts.googleapis.com%2Fcss%3Ffamily%3DArchitects%2BDaughter;fontSize=16;" edge="1" parent="1" source="k8tZ9NRPcp9l-DTsyhbM-1" target="k8tZ9NRPcp9l-DTsyhbM-3">
          <mxGeometry relative="1" as="geometry" />
        </mxCell>
        <mxCell id="k8tZ9NRPcp9l-DTsyhbM-1" value="Frontend Server" style="fontColor=#0066CC;verticalAlign=top;verticalLabelPosition=bottom;labelPosition=center;align=center;html=1;outlineConnect=0;fillColor=#CCCCCC;strokeColor=#6881B3;gradientColor=none;gradientDirection=north;strokeWidth=2;shape=mxgraph.networks.server;sketch=1;hachureGap=4;jiggle=2;curveFitting=1;fontFamily=Architects Daughter;fontSource=https%3A%2F%2Ffonts.googleapis.com%2Fcss%3Ffamily%3DArchitects%2BDaughter;fontSize=20;" vertex="1" parent="1">
          <mxGeometry x="160" y="240" width="90" height="100" as="geometry" />
        </mxCell>
        <mxCell id="k8tZ9NRPcp9l-DTsyhbM-8" style="edgeStyle=orthogonalEdgeStyle;rounded=0;sketch=1;hachureGap=4;jiggle=2;curveFitting=1;orthogonalLoop=1;jettySize=auto;html=1;fontFamily=Architects Daughter;fontSource=https%3A%2F%2Ffonts.googleapis.com%2Fcss%3Ffamily%3DArchitects%2BDaughter;fontSize=16;" edge="1" parent="1" source="k8tZ9NRPcp9l-DTsyhbM-2" target="k8tZ9NRPcp9l-DTsyhbM-3">
          <mxGeometry relative="1" as="geometry" />
        </mxCell>
        <mxCell id="k8tZ9NRPcp9l-DTsyhbM-2" value="Auth Server" style="fontColor=#0066CC;verticalAlign=top;verticalLabelPosition=bottom;labelPosition=center;align=center;html=1;outlineConnect=0;fillColor=#CCCCCC;strokeColor=#6881B3;gradientColor=none;gradientDirection=north;strokeWidth=2;shape=mxgraph.networks.server;sketch=1;hachureGap=4;jiggle=2;curveFitting=1;fontFamily=Architects Daughter;fontSource=https%3A%2F%2Ffonts.googleapis.com%2Fcss%3Ffamily%3DArchitects%2BDaughter;fontSize=20;" vertex="1" parent="1">
          <mxGeometry x="414" y="370" width="90" height="100" as="geometry" />
        </mxCell>
        <mxCell id="k8tZ9NRPcp9l-DTsyhbM-3" value="Quote Server" style="fontColor=#0066CC;verticalAlign=top;verticalLabelPosition=bottom;labelPosition=center;align=center;html=1;outlineConnect=0;fillColor=#CCCCCC;strokeColor=#6881B3;gradientColor=none;gradientDirection=north;strokeWidth=2;shape=mxgraph.networks.server;sketch=1;hachureGap=4;jiggle=2;curveFitting=1;fontFamily=Architects Daughter;fontSource=https%3A%2F%2Ffonts.googleapis.com%2Fcss%3Ffamily%3DArchitects%2BDaughter;fontSize=20;" vertex="1" parent="1">
          <mxGeometry x="414" y="180" width="90" height="100" as="geometry" />
        </mxCell>
        <mxCell id="k8tZ9NRPcp9l-DTsyhbM-7" style="rounded=0;sketch=1;hachureGap=4;jiggle=2;curveFitting=1;orthogonalLoop=1;jettySize=auto;html=1;entryX=0;entryY=0.5;entryDx=0;entryDy=0;entryPerimeter=0;fontFamily=Architects Daughter;fontSource=https%3A%2F%2Ffonts.googleapis.com%2Fcss%3Ffamily%3DArchitects%2BDaughter;fontSize=16;" edge="1" parent="1" source="k8tZ9NRPcp9l-DTsyhbM-1" target="k8tZ9NRPcp9l-DTsyhbM-2">
          <mxGeometry relative="1" as="geometry" />
        </mxCell>
        <mxCell id="k8tZ9NRPcp9l-DTsyhbM-11" style="edgeStyle=orthogonalEdgeStyle;rounded=0;sketch=1;hachureGap=4;jiggle=2;curveFitting=1;orthogonalLoop=1;jettySize=auto;html=1;fontFamily=Architects Daughter;fontSource=https%3A%2F%2Ffonts.googleapis.com%2Fcss%3Ffamily%3DArchitects%2BDaughter;fontSize=16;" edge="1" parent="1" source="k8tZ9NRPcp9l-DTsyhbM-10" target="k8tZ9NRPcp9l-DTsyhbM-6">
          <mxGeometry relative="1" as="geometry" />
        </mxCell>
        <mxCell id="k8tZ9NRPcp9l-DTsyhbM-10" value="Actor" style="shape=umlActor;verticalLabelPosition=bottom;verticalAlign=top;html=1;outlineConnect=0;sketch=1;hachureGap=4;jiggle=2;curveFitting=1;fontFamily=Architects Daughter;fontSource=https%3A%2F%2Ffonts.googleapis.com%2Fcss%3Ffamily%3DArchitects%2BDaughter;fontSize=20;" vertex="1" parent="1">
          <mxGeometry x="-40" y="310" width="30" height="60" as="geometry" />
        </mxCell>
      </root>
    </mxGraphModel>
  </diagram>
</mxfile>
